<?xml version="1.0" encoding="utf-8"?>
<!-- Generator: Adobe Illustrator 15.0.0, SVG Export Plug-In . SVG Version: 6.00 Build 0)  -->
<!DOCTYPE svg PUBLIC "-//W3C//DTD SVG 1.1//EN" "http://www.w3.org/Graphics/SVG/1.1/DTD/svg11.dtd">
<svg version="1.1" xmlns="http://www.w3.org/2000/svg" xmlns:xlink="http://www.w3.org/1999/xlink" x="0px" y="0px" width="612px"
	 height="792px" viewBox="0 0 612 792" enable-background="new 0 0 612 792" xml:space="preserve">
<g id="Layer_1">
	<path d="M56.166,65.679c0,0-0.047,2.612,3.856,3.435c8.594,1.812,11.969-6.969,7.95-11.571c-1.66-1.9-5.418-2.085-6.387-0.543
		c-0.327-0.268-24.997-10.106-20.624-21.386s26.142,16.508,26.243,16.433c0,0-0.286,3.615,4.068,4.068
		c5.312,0.552,9.625-6.968,8.455-9.894c-1.116-2.791-4.155-1.081-4.786-1.196c-0.243-0.347-14.119-14.197-14.119-14.197
		L47.451-37.352c0,0,2.399-23.97,14.846-24.421c6.887-0.25,6.943-11.515,1.012-15.375c-4.886-3.18-15.375-1.25-13,5.625
		c-0.673,3.34-15.225,27.856-28.013,31.279C16.084-49.333-0.198-56.755-0.198-56.755s-18.187,10.05-24.776,20.076
		c-5.614,0.265-27.4-20.339-27.089-36.958c0.024-1.267-1.216-4.051-3.114-4.671c-5.303-1.733-12.251,1.545-12.251,8.575
		c0,1.954,2.505,4.437,4.013,4.429c4.065,1.554,14.973,33.925,13.912,28.191c0,0-11.811,66.523-12.181,67.816
		c0.42,3.323-16.023,10.625-16.266,10.971c-0.631,0.115-3.989-1.053-5.856,0.645c-2.603,2.365-1.215,15.577,10.216,9.734
		c2.335-1.193,1.538-3.363,1.538-3.363s16.222-9.766,18.557-9.417l9.388,6.926c-1.139,2.398-7.326,11.33-14.786,11.327
		c-0.638-0.059-4.296-1.088-5.795,0.941c-2.121,2.869,1.106,13.867,9.917,11.726c1.302-0.316,2.356-5.859,2.356-5.859
		s15.803-10.248,19.085-10.184l0.101,0.074c0.934,4.719,1.989,14.883,11.579,21.065c1.31,3.167,3.409,7.061,8.663,9.585
		c-3.792,1.398-16.507-7.801-19.276-3.135c-0.657,1.108-0.957,2.872,1.197,3.589c2.153,0.718,3.35-1.196,3.35-1.196
		s7.179,5.025,12.683,5.743c5.198,0.678,6.734-2.669,5.683-3.651c2.26,0.637,4.918,1.076,8.12,1.21
		c3.996,0.166,7.278-0.307,9.993-1.14c-0.077,1.019,1.849,2.533,6.196,1.966c5.504-0.718,11.805-5.265,11.805-5.265
		s1.544,1.436,3.67,0.639c1.276-0.479,1.812-1.948,1.116-3.032c-4.18-6.502-16.621,5.924-18.811,4.039
		c5.455-2.989,7.477-7.472,8.135-8.92c-0.095,0.02-0.225,0.04-0.327,0.06c7.045-3.575,12.944-9.799,13.08-20.544"/>
	<path fill="#594A42" d="M-21.697,58.495c3.259-1.223,7.424,8.67,12.945,8.442c-3.096,3.658-9.288,2.532-12.102,0.282
		C-23.668,64.967-23.948,59.339-21.697,58.495z"/>
	<path fill="#594A42" d="M21.133,58.495c-3.26-1.223-7.424,8.67-12.946,8.442c3.096,3.658,9.288,2.532,12.102,0.282
		C23.104,64.967,23.384,59.339,21.133,58.495z"/>
	<polyline fill="none" stroke="#DA1C5C" stroke-width="1.9144" stroke-miterlimit="10" points="209.406,130.454 209.406,125.988 
		213.235,125.988 213.235,131.092 217.98,131.092 217.98,125.309 222.886,125.309 222.886,129.976 	"/>
	<path d="M-105.835,55.835"/>
</g>
<g id="Layer_2">
	<path fill="#594A42" stroke="#ED1C24" stroke-width="1.9144" stroke-miterlimit="10" d="M0.079,40.443
		C1.75,50.153,25.88,55.854,36.41,54.584c7.691-0.928,35.076-23.854,33.863-59.027c-1.008-29.209-38.644-53.448-46.911-53.448
		C15.747-45.49-3.309,20.764,0.079,40.443z"/>
	<path fill="#594A42" stroke="#ED1C24" stroke-width="1.9144" stroke-miterlimit="10" d="M-0.282,39.35
		c-1.936,9.873-29.466,19.828-36.331,15.229C-61.308,38.036-71.001,20.698-71.546-1.125s14.918-45.676,45.375-57.206
		C-10.289-40.709,1.559,29.959-0.282,39.35z"/>
	<circle fill="#ED1C24" cx="-34.731" cy="-28.318" r="16.443"/>
	<g>
		<path fill="#ED1C24" d="M-47.823,11.191c0-7.401-6-13.401-13.401-13.401c-4.099,0-7.762,1.845-10.221,4.744
			c0.679,7.508,2.481,14.597,5.768,21.283c1.396,0.493,2.889,0.774,4.453,0.774C-53.822,24.591-47.823,18.592-47.823,11.191z"/>
	</g>
	<circle fill="#ED1C24" cx="-30.594" cy="30.016" r="7.339"/>
	<circle fill="#ED1C24" cx="34.731" cy="-28.318" r="16.443"/>
	<g>
		<path fill="#ED1C24" d="M47.823,11.191c0-7.401,6-13.401,13.401-13.401c4.099,0,7.762,1.845,10.221,4.744
			c-0.679,7.508-2.481,14.597-5.768,21.283c-1.396,0.493-2.889,0.774-4.453,0.774C53.822,24.591,47.823,18.592,47.823,11.191z"/>
	</g>
	<circle fill="#ED1C24" cx="30.594" cy="30.016" r="7.339"/>
</g>
</svg>
