<?xml version="1.0" encoding="utf-8"?>
<!-- Generator: Adobe Illustrator 15.0.0, SVG Export Plug-In . SVG Version: 6.00 Build 0)  -->
<!DOCTYPE svg PUBLIC "-//W3C//DTD SVG 1.1//EN" "http://www.w3.org/Graphics/SVG/1.1/DTD/svg11.dtd">
<svg version="1.1" id="Layer_1" xmlns="http://www.w3.org/2000/svg" xmlns:xlink="http://www.w3.org/1999/xlink" x="0px" y="0px"
	 width="612px" height="792px" viewBox="0 0 612 792" enable-background="new 0 0 612 792" xml:space="preserve">
<a xlink:href="#" >
	<polygon points="105,2.167 102.04,12.357 101,22.167 100.476,22.428 100,23.167 99.74,25.607 99,28.167 97.144,32.125 96,38.167 
		104,69.167 103.422,72.821 101,79.167 100,79.167 95,87.167 91,90.167 88,93.167 85.711,95.748 82,98.167 74.465,98.49 67,97.167 
		60.253,99.7 51.874,105.716 49,107.167 47,107.167 47,108.167 36.899,108.509 29,106.167 26,103.167 32.847,95.522 43,91.167 
		49.86,84.606 51,75.167 49.792,72.718 42,63.167 39.739,61.429 25,46.167 22,45.167 20,43.167 4,41.167 -23,44.167 -30,46.167 
		-30.269,46.725 -33.958,48.799 -37,51.167 -38,83.167 -38.492,83.407 -39,84.167 -39.668,87.354 -42,93.167 -45,95.167 -46,98.167 
		-48,98.167 -49.654,99.719 -52,101.167 -60.163,102.293 -69,98.167 -64.893,90.773 -58,86.167 -56.919,77.72 -58,69.167 
		-59.043,68.734 -60,70.167 -89,99.167 -92,100.167 -94,102.167 -96,102.167 -97.229,102.897 -104.191,104.13 -112,104.167 
		-115.965,102.7 -119,100.167 -113.276,92.886 -104,89.167 -95,80.167 -95,78.167 -93,77.167 -91,70.167 -90.54,69.799 -90,69.167 
		-87,61.167 -86.457,60.901 -86,60.167 -83.082,51.431 -83,43.167 -84.834,40.06 -88,38.167 -88.274,37.556 -89,37.167 
		-96.991,30.957 -104,22.167 -104.612,21.892 -105,21.167 -104.964,20.653 -105,20.167 -108,17.167 -110,10.167 -110.54,9.902 
		-111,9.167 -113.368,3.602 -118,-0.833 -124,-4.833 -126,-7.833 -128.5,-9.968 -131,-12.833 -132.6,-16.165 -133,-17.833 
		-136,-59.833 -127.262,-57.131 -119,-51.833 -99,-52.833 -94,-51.833 -91,-52.833 -88.723,-53.1 -84,-54.833 -79.304,-57.646 
		-73,-58.833 -76,-35.833 -74.652,-35.181 -73,-34.833 -72.246,-34.073 -71,-33.833 -64,-35.833 -63.29,-36.385 -63,-36.833 
		-35,-43.833 -14.75,-46.058 8.255,-47.314 33.25,-46.591 55,-44.833 55.24,-44.341 56,-43.833 60,-43.833 60.252,-43.326 
		61,-42.833 75,-38.833 75.271,-38.269 81.636,-34.87 87,-29.833 89,-29.833 90.659,-28.286 93,-26.833 93.274,-26.221 98,-23.833 
		101,-22.833 115.452,-22.459 128,-25.833 136,-31.833 139,-37.833 139,-42.833 140,-45.833 138,-59.833 138,-63.833 137,-63.833 
		137,-67.833 127.102,-102.442 127,-113.833 127.512,-114.088 130.594,-119.132 136,-121.833 141.039,-119.434 144,-113.833 
		144,-111.833 144.719,-109.855 145,-105.833 147,-97.833 147,-95.833 150,-88.833 150,-86.833 151.172,-85.502 152,-83.833 
		152,-81.833 153,-81.833 155,-74.833 155.564,-74.563 156,-73.833 162.379,-51.251 161,-31.833 158,-24.833 156.455,-22.434 
		149,-14.833 147,-11.833 145,-11.833 143.838,-10.338 139,-6.833 133,-4.833 132.735,-4.294 132,-3.833 131,-3.833 126,-1.833 
		122,-0.833 105,2.167 	"/>
</a>
</svg>
