<?xml version="1.0" encoding="utf-8"?>
<!-- Generator: Adobe Illustrator 15.0.0, SVG Export Plug-In . SVG Version: 6.00 Build 0)  -->
<!DOCTYPE svg PUBLIC "-//W3C//DTD SVG 1.1//EN" "http://www.w3.org/Graphics/SVG/1.1/DTD/svg11.dtd">
<svg version="1.1" id="Layer_1" xmlns="http://www.w3.org/2000/svg" xmlns:xlink="http://www.w3.org/1999/xlink" x="0px" y="0px"
	 width="612px" height="792px" viewBox="0 0 612 792" enable-background="new 0 0 612 792" xml:space="preserve">
<a xlink:href="#" >
	<polygon points="105,2.167 102.04,12.357 101,22.167 100.476,22.428 100,23.167 99.74,25.607 99,28.167 97.144,32.125 96,38.167 
		100.17,53.705 104,69.167 103.422,72.821 102,76.167 101.541,77.695 101,79.167 100.479,79.155 100,79.167 97.714,83.215 
		95,87.167 93.079,88.621 91,90.167 90.533,91.707 90,93.167 88.974,93.147 88,93.167 85.711,95.748 82,98.167 80.951,98.117 
		80,98.167 74.465,98.49 67,97.167 60.253,99.7 54,104.167 51.874,105.716 49,107.167 47.951,107.116 47,107.167 47.004,107.69 
		47,108.167 36.899,108.509 29,106.167 27.448,104.777 26,103.167 32.847,95.522 43,91.167 49.86,84.606 51,75.167 49.792,72.718 
		48,70.167 45.312,66.836 42,63.167 39.739,61.429 38,59.167 32.999,53.581 27,48.167 25.993,47.137 25,46.167 23.585,45.671 
		22,45.167 20.964,44.121 20,43.167 12.393,41.702 4,41.167 -1.762,41.479 -8,42.167 -15.816,42.871 -23,44.167 -26.136,44.961 
		-30,46.167 -30.269,46.725 -31,47.167 -33.958,48.799 -37,51.167 -37.961,67.295 -38,83.167 -38.492,83.407 -39,84.167 
		-39.668,87.354 -41,90.167 -41.423,91.612 -42,93.167 -43.49,94.185 -45,95.167 -45.441,96.749 -46,98.167 -47.022,98.151 
		-48,98.167 -49.654,99.719 -52,101.167 -60.163,102.293 -69,98.167 -64.893,90.773 -58,86.167 -56.919,77.72 -58,69.167 
		-59.043,68.734 -60,70.167 -72.205,81.878 -85,95.167 -86.924,97.172 -89,99.167 -90.402,99.697 -92,100.167 -93.033,101.205 
		-94,102.167 -95.048,102.118 -96,102.167 -97.229,102.897 -99,103.167 -104.191,104.13 -112,104.167 -115.965,102.7 -119,100.167 
		-113.276,92.886 -104,89.167 -101.207,86.789 -98,83.167 -96.439,81.629 -95,80.167 -95.028,79.133 -95,78.167 -93.953,77.682 
		-93,77.167 -92.05,73.775 -91,70.167 -90.54,69.799 -90,69.167 -88.474,65.157 -87,61.167 -86.457,60.901 -86,60.167 
		-85.599,58.822 -85,57.167 -83.082,51.431 -83,43.167 -84.834,40.06 -88,38.167 -88.274,37.556 -89,37.167 -96.991,30.957 
		-104,22.167 -104.612,21.892 -105,21.167 -104.964,20.653 -105,20.167 -106.615,18.537 -108,17.167 -109.134,13.624 -110,10.167 
		-110.54,9.902 -111,9.167 -113.368,3.602 -118,-0.833 -121.056,-2.797 -124,-4.833 -125.015,-6.316 -126,-7.833 -128.5,-9.968 
		-131,-12.833 -131.484,-13.816 -132,-14.833 -132.6,-16.165 -133,-17.833 -133.686,-28.531 -134,-41.833 -135.592,-50.81 
		-136,-59.833 -127.262,-57.131 -119,-51.833 -109.861,-52.216 -99,-52.833 -96.304,-52.22 -94,-51.833 -92.691,-52.31 -91,-52.833 
		-88.723,-53.1 -87,-53.833 -85.472,-54.292 -84,-54.833 -79.304,-57.646 -73,-58.833 -74.033,-48.096 -76,-35.833 -74.652,-35.181 
		-73,-34.833 -72.246,-34.073 -71,-33.833 -69.209,-34.251 -67,-34.833 -65.65,-35.314 -64,-35.833 -63.29,-36.385 -63,-36.833 
		-55.637,-38.403 -49,-39.833 -42.149,-41.94 -35,-43.833 -13.557,-45.737 9,-46.833 27.047,-47.147 44,-45.833 49.727,-45.406 
		55,-44.833 55.24,-44.341 56,-43.833 58.017,-43.926 60,-43.833 60.252,-43.326 61,-42.833 64.623,-42.135 69,-40.833 
		71.838,-40.004 75,-38.833 75.271,-38.269 76,-37.833 77.852,-36.841 80,-35.833 81.636,-34.87 84,-32.833 85.53,-31.265 
		87,-29.833 88.035,-29.861 89,-29.833 90.659,-28.286 93,-26.833 93.274,-26.221 94,-25.833 95.852,-24.841 98,-23.833 
		99.356,-23.438 101,-22.833 115.452,-22.459 128,-25.833 130.201,-27.316 132,-28.833 134.281,-30.388 136,-31.833 
		136.553,-33.778 137,-35.833 138.05,-36.876 139,-37.833 139.064,-40.315 139,-42.833 139.532,-44.141 140,-45.833 
		139.411,-52.796 138,-59.833 138.129,-61.924 138,-63.833 137.479,-63.83 137,-63.833 137.127,-65.924 137,-67.833 134.843,-72.97 
		133,-79.833 132.124,-82.646 131,-85.833 130.519,-87.632 130,-89.833 129.562,-91.629 129,-93.833 127.102,-102.442 127,-113.833 
		127.512,-114.088 128,-114.833 130.594,-119.132 136,-121.833 141.039,-119.434 144,-113.833 143.95,-112.784 144,-111.833 
		144.719,-109.855 145,-105.833 145.522,-104.516 146,-102.833 146.365,-100.256 147,-97.833 146.943,-96.782 147,-95.833 
		148.539,-92.872 150,-88.833 149.95,-87.784 150,-86.833 151.172,-85.502 152,-83.833 151.949,-82.783 152,-81.833 
		152.522,-81.842 153,-81.833 153.94,-78.263 155,-74.833 155.564,-74.563 156,-73.833 156.759,-71.577 158,-68.833 
		162.379,-51.251 161,-31.833 159.252,-28.098 158,-24.833 156.455,-22.434 154,-19.833 151.51,-17.177 149,-14.833 
		148.014,-13.306 147,-11.833 145.973,-11.854 145,-11.833 143.838,-10.338 142,-8.833 140.418,-7.891 139,-6.833 136.793,-5.967 
		133,-4.833 132.735,-4.294 132,-3.833 131.492,-3.864 131,-3.833 128.916,-2.871 126,-1.833 123.909,-1.962 122,-1.833 
		122.003,-1.312 122,-0.833 113.485,0.063 	"/>
</a>
</svg>
