<?xml version="1.0" encoding="iso-8859-1"?>
<!-- Generator: Adobe Illustrator 15.0.0, SVG Export Plug-In . SVG Version: 6.00 Build 0)  -->
<!DOCTYPE svg PUBLIC "-//W3C//DTD SVG 1.1//EN" "http://www.w3.org/Graphics/SVG/1.1/DTD/svg11.dtd">
<svg version="1.1" id="Layer_1" xmlns="http://www.w3.org/2000/svg" xmlns:xlink="http://www.w3.org/1999/xlink" x="0px" y="0px"
	 width="612px" height="792px" viewBox="0 0 612 792" style="enable-background:new 0 0 612 792;" xml:space="preserve">
<path style="fill-rule:evenodd;clip-rule:evenodd;" d="M-81.75,41.379l-3.166-1.893l-0.274-0.611l-0.726-0.389l-7.991-6.21
	l-7.009-8.79l-0.612-0.274l-0.388-0.726l0.036-0.514l-0.036-0.486l-1.615-1.63l-1.385-1.37l-1.134-3.543l-0.866-3.457l-0.54-0.265
	l-0.46-0.735l-2.368-5.565l-4.632-4.435l-3.056-1.964l-2.944-2.036l-1.015-1.483l-0.985-1.517l-2.5-2.135l-2.5-2.865l-0.484-0.983
	l-0.516-1.017l-0.6-1.332l-0.4-1.668l-0.686-10.698l-0.314-13.302l-1.592-8.977l-0.408-9.023l8.738,2.702l8.262,5.298l9.139-0.383
	l10.861-0.617l2.696,0.613l2.304,0.387l1.309-0.477l1.691-0.523l2.277-0.267l1.723-0.733l1.528-0.459l1.472-0.541 M-81.916,96.486
	l-1.924,2.005l-2.076,1.995l-1.402,0.53l-1.598,0.47l-1.033,1.038l-0.967,0.962l-1.048-0.049l-0.952,0.049l-1.229,0.73l-1.771,0.27
	l-5.191,0.963l-7.809,0.037l-3.965-1.467l-3.035-2.533l5.724-7.281l9.276-3.719l2.793-2.378l3.207-3.622l1.561-1.538l1.439-1.462
	l-0.028-1.034l0.028-0.966l1.047-0.485l0.953-0.515l0.95-3.392l1.05-3.608l0.46-0.368l0.54-0.632l1.526-4.01l1.474-3.99l0.543-0.266
	l0.457-0.734l0.401-1.345l0.599-1.655"/>
</svg>
