<?xml version="1.0" encoding="UTF-8" standalone="no"?>
<!DOCTYPE svg PUBLIC "-//W3C//DTD SVG 1.1//EN"
 "http://www.w3.org/Graphics/SVG/1.1/DTD/svg11.dtd">
<!-- Generated by graphviz version 2.26.3 (20100126.1600)
 -->
<!-- Title: Finite_Automata_Graph Pages: 1 -->
<svg width="176pt" height="140pt"
 viewBox="0.00 0.00 176.00 140.00" xmlns="http://www.w3.org/2000/svg" xmlns:xlink="http://www.w3.org/1999/xlink">
<g id="graph1" class="graph" transform="scale(1 1) rotate(0) translate(4 136)">
<title>Finite_Automata_Graph</title>
<polygon fill="white" stroke="white" points="-4,5 -4,-136 173,-136 173,5 -4,5"/>
<!-- 0 -->
<g id="node1" class="node"><title>0</title>
<ellipse fill="none" stroke="#000000" cx="84" cy="-114" rx="18" ry="18"/>
<text text-anchor="middle" x="84" y="-109.4" font-family="Times Roman,serif" font-size="14.00">0</text>
</g>
<!-- 1 -->
<g id="node2" class="node"><title>1</title>
<ellipse fill="none" stroke="#000000" cx="22" cy="-22" rx="18" ry="18"/>
<ellipse fill="none" stroke="#000000" cx="22" cy="-22" rx="22" ry="22"/>
<text text-anchor="middle" x="22" y="-17.4" font-family="Times Roman,serif" font-size="14.00">1</text>
</g>
<!-- 0&#45;&gt;1 -->
<g id="edge2" class="edge"><title>0&#45;&gt;1</title>
<path fill="none" stroke="black" d="M73.762,-98.8081C64.6497,-85.2866 51.108,-65.1925 40.1609,-48.9484"/>
<polygon fill="black" stroke="black" points="42.8817,-46.7228 34.3906,-40.3861 37.0768,-50.6348 42.8817,-46.7228"/>
<text text-anchor="middle" x="63.5" y="-65.4" font-family="Times Roman,serif" font-size="14.00">a</text>
</g>
<!-- 2 -->
<g id="node3" class="node"><title>2</title>
<ellipse fill="none" stroke="#000000" cx="84" cy="-22" rx="18" ry="18"/>
<ellipse fill="none" stroke="#000000" cx="84" cy="-22" rx="22" ry="22"/>
<text text-anchor="middle" x="84" y="-17.4" font-family="Times Roman,serif" font-size="14.00">2</text>
</g>
<!-- 0&#45;&gt;2 -->
<g id="edge4" class="edge"><title>0&#45;&gt;2</title>
<path fill="none" stroke="black" d="M84,-95.8238C84,-83.9726 84,-68.1746 84,-54.2345"/>
<polygon fill="black" stroke="black" points="87.5001,-54.0326 84,-44.0326 80.5001,-54.0327 87.5001,-54.0326"/>
<text text-anchor="middle" x="89" y="-65.4" font-family="Times Roman,serif" font-size="14.00">b</text>
</g>
<!-- 3 -->
<g id="node4" class="node"><title>3</title>
<ellipse fill="none" stroke="#000000" cx="146" cy="-22" rx="18" ry="18"/>
<ellipse fill="none" stroke="#000000" cx="146" cy="-22" rx="22" ry="22"/>
<text text-anchor="middle" x="146" y="-17.4" font-family="Times Roman,serif" font-size="14.00">3</text>
</g>
<!-- 0&#45;&gt;3 -->
<g id="edge6" class="edge"><title>0&#45;&gt;3</title>
<path fill="none" stroke="black" d="M94.238,-98.8081C103.35,-85.2866 116.892,-65.1925 127.839,-48.9484"/>
<polygon fill="black" stroke="black" points="130.923,-50.6348 133.609,-40.3861 125.118,-46.7228 130.923,-50.6348"/>
<text text-anchor="middle" x="122" y="-65.4" font-family="Times Roman,serif" font-size="14.00">c</text>
</g>
</g>
</svg>
