<?xml version="1.0" encoding="UTF-8" standalone="no"?>
<!DOCTYPE svg PUBLIC "-//W3C//DTD SVG 1.1//EN"
 "http://www.w3.org/Graphics/SVG/1.1/DTD/svg11.dtd">
<!-- Generated by graphviz version 2.26.3 (20100126.1600)
 -->
<!-- Title: Finite_Automata_Graph Pages: 1 -->
<svg width="144pt" height="512pt"
 viewBox="0.00 0.00 144.00 512.00" xmlns="http://www.w3.org/2000/svg" xmlns:xlink="http://www.w3.org/1999/xlink">
<g id="graph1" class="graph" transform="scale(1 1) rotate(0) translate(4 508)">
<title>Finite_Automata_Graph</title>
<polygon fill="white" stroke="white" points="-4,5 -4,-508 141,-508 141,5 -4,5"/>
<!-- 0 -->
<g id="node1" class="node"><title>0</title>
<ellipse fill="none" stroke="#000000" cx="45" cy="-486" rx="18" ry="18"/>
<text text-anchor="middle" x="45" y="-481.4" font-family="Times Roman,serif" font-size="14.00">0</text>
</g>
<!-- 1 -->
<g id="node2" class="node"><title>1</title>
<ellipse fill="none" stroke="#000000" cx="18" cy="-398" rx="18" ry="18"/>
<text text-anchor="middle" x="18" y="-393.4" font-family="Times Roman,serif" font-size="14.00">1</text>
</g>
<!-- 0&#45;&gt;1 -->
<g id="edge2" class="edge"><title>0&#45;&gt;1</title>
<path fill="none" stroke="black" d="M39.6657,-468.614C35.8567,-456.2 30.6586,-439.258 26.3087,-425.08"/>
<polygon fill="black" stroke="black" points="29.6026,-423.883 23.3232,-415.35 22.9105,-425.937 29.6026,-423.883"/>
<text text-anchor="middle" x="38" y="-437.4" font-family="Times Roman,serif" font-size="14.00">ε</text>
</g>
<!-- 3 -->
<g id="node4" class="node"><title>3</title>
<ellipse fill="none" stroke="#000000" cx="72" cy="-398" rx="18" ry="18"/>
<text text-anchor="middle" x="72" y="-393.4" font-family="Times Roman,serif" font-size="14.00">3</text>
</g>
<!-- 0&#45;&gt;3 -->
<g id="edge4" class="edge"><title>0&#45;&gt;3</title>
<path fill="none" stroke="black" d="M50.3343,-468.614C54.1433,-456.2 59.3414,-439.258 63.6913,-425.08"/>
<polygon fill="black" stroke="black" points="67.0895,-425.937 66.6768,-415.35 60.3974,-423.883 67.0895,-425.937"/>
<text text-anchor="middle" x="64" y="-437.4" font-family="Times Roman,serif" font-size="14.00">ε</text>
</g>
<!-- 2 -->
<g id="node3" class="node"><title>2</title>
<ellipse fill="none" stroke="#000000" cx="18" cy="-256" rx="18" ry="18"/>
<text text-anchor="middle" x="18" y="-251.4" font-family="Times Roman,serif" font-size="14.00">2</text>
</g>
<!-- 1&#45;&gt;2 -->
<g id="edge6" class="edge"><title>1&#45;&gt;2</title>
<path fill="none" stroke="black" d="M18,-379.727C18,-355.55 18,-312.685 18,-284.303"/>
<polygon fill="black" stroke="black" points="21.5001,-284.203 18,-274.203 14.5001,-284.203 21.5001,-284.203"/>
<text text-anchor="middle" x="22.5" y="-349.4" font-family="Times Roman,serif" font-size="14.00">a</text>
</g>
<!-- 5 -->
<g id="node6" class="node"><title>5</title>
<ellipse fill="none" stroke="#000000" cx="37" cy="-22" rx="18" ry="18"/>
<ellipse fill="none" stroke="#000000" cx="37" cy="-22" rx="22" ry="22"/>
<text text-anchor="middle" x="37" y="-17.4" font-family="Times Roman,serif" font-size="14.00">5</text>
</g>
<!-- 2&#45;&gt;5 -->
<g id="edge8" class="edge"><title>2&#45;&gt;5</title>
<path fill="none" stroke="black" d="M19.4593,-238.027C22.6571,-198.644 30.3195,-104.275 34.3768,-54.3071"/>
<polygon fill="black" stroke="black" points="37.8876,-54.3148 35.2085,-44.0643 30.9105,-53.7483 37.8876,-54.3148"/>
<text text-anchor="middle" x="31" y="-153.4" font-family="Times Roman,serif" font-size="14.00">ε</text>
</g>
<!-- 6 -->
<g id="node7" class="node"><title>6</title>
<ellipse fill="none" stroke="#000000" cx="64" cy="-310" rx="18" ry="18"/>
<text text-anchor="middle" x="64" y="-305.4" font-family="Times Roman,serif" font-size="14.00">6</text>
</g>
<!-- 3&#45;&gt;6 -->
<g id="edge10" class="edge"><title>3&#45;&gt;6</title>
<path fill="none" stroke="black" d="M70.3424,-379.766C69.259,-367.849 67.8217,-352.038 66.5892,-338.482"/>
<polygon fill="black" stroke="black" points="70.0466,-337.852 65.6555,-328.21 63.0753,-338.486 70.0466,-337.852"/>
<text text-anchor="middle" x="72" y="-349.4" font-family="Times Roman,serif" font-size="14.00">ε</text>
</g>
<!-- 8 -->
<g id="node9" class="node"><title>8</title>
<ellipse fill="none" stroke="#000000" cx="118" cy="-310" rx="18" ry="18"/>
<text text-anchor="middle" x="118" y="-305.4" font-family="Times Roman,serif" font-size="14.00">8</text>
</g>
<!-- 3&#45;&gt;8 -->
<g id="edge12" class="edge"><title>3&#45;&gt;8</title>
<path fill="none" stroke="black" d="M80.4371,-381.859C87.2456,-368.834 96.9464,-350.276 104.784,-335.283"/>
<polygon fill="black" stroke="black" points="108.086,-336.522 109.616,-326.038 101.882,-333.279 108.086,-336.522"/>
<text text-anchor="middle" x="103" y="-349.4" font-family="Times Roman,serif" font-size="14.00">ε</text>
</g>
<!-- 4 -->
<g id="node5" class="node"><title>4</title>
<ellipse fill="none" stroke="#000000" cx="64" cy="-114" rx="18" ry="18"/>
<text text-anchor="middle" x="64" y="-109.4" font-family="Times Roman,serif" font-size="14.00">4</text>
</g>
<!-- 4&#45;&gt;5 -->
<g id="edge14" class="edge"><title>4&#45;&gt;5</title>
<path fill="none" stroke="black" d="M58.9215,-96.6955C55.3221,-84.431 50.3929,-67.6352 46.1202,-53.0762"/>
<polygon fill="black" stroke="black" points="49.4659,-52.0472 43.2914,-43.4375 42.7492,-54.0184 49.4659,-52.0472"/>
<text text-anchor="middle" x="56" y="-65.4" font-family="Times Roman,serif" font-size="14.00">ε</text>
</g>
<!-- 7 -->
<g id="node8" class="node"><title>7</title>
<ellipse fill="none" stroke="#000000" cx="64" cy="-202" rx="18" ry="18"/>
<text text-anchor="middle" x="64" y="-197.4" font-family="Times Roman,serif" font-size="14.00">7</text>
</g>
<!-- 6&#45;&gt;7 -->
<g id="edge16" class="edge"><title>6&#45;&gt;7</title>
<path fill="none" stroke="black" d="M64,-291.679C64,-274.821 64,-249.565 64,-230.147"/>
<polygon fill="black" stroke="black" points="67.5001,-230.05 64,-220.05 60.5001,-230.05 67.5001,-230.05"/>
<text text-anchor="middle" x="69" y="-251.4" font-family="Times Roman,serif" font-size="14.00">b</text>
</g>
<!-- 7&#45;&gt;4 -->
<g id="edge18" class="edge"><title>7&#45;&gt;4</title>
<path fill="none" stroke="black" d="M64,-183.766C64,-171.849 64,-156.038 64,-142.482"/>
<polygon fill="black" stroke="black" points="67.5001,-142.21 64,-132.21 60.5001,-142.21 67.5001,-142.21"/>
<text text-anchor="middle" x="68" y="-153.4" font-family="Times Roman,serif" font-size="14.00">ε</text>
</g>
<!-- 9 -->
<g id="node10" class="node"><title>9</title>
<ellipse fill="none" stroke="#000000" cx="118" cy="-202" rx="18" ry="18"/>
<text text-anchor="middle" x="118" y="-197.4" font-family="Times Roman,serif" font-size="14.00">9</text>
</g>
<!-- 8&#45;&gt;9 -->
<g id="edge20" class="edge"><title>8&#45;&gt;9</title>
<path fill="none" stroke="black" d="M118,-291.679C118,-274.821 118,-249.565 118,-230.147"/>
<polygon fill="black" stroke="black" points="121.5,-230.05 118,-220.05 114.5,-230.05 121.5,-230.05"/>
<text text-anchor="middle" x="122" y="-251.4" font-family="Times Roman,serif" font-size="14.00">c</text>
</g>
<!-- 9&#45;&gt;4 -->
<g id="edge22" class="edge"><title>9&#45;&gt;4</title>
<path fill="none" stroke="black" d="M108.346,-186.267C100.206,-173.003 88.4192,-153.794 79.0429,-138.514"/>
<polygon fill="black" stroke="black" points="81.7839,-136.289 73.5705,-129.596 75.8176,-139.95 81.7839,-136.289"/>
<text text-anchor="middle" x="99" y="-153.4" font-family="Times Roman,serif" font-size="14.00">ε</text>
</g>
</g>
</svg>
